P3 
3
3
255
31
31
255
255
230
159
255
21
7
230
126
255
255
165
255
190
148
255
255
82
11
255
255
205
46
80
255
