P3 
3
3
255
18
18
18
236
236
236
54
54
54
18
18
18
54
54
54
18
18
18
54
54
54
236
236
236
18
18
18
