P3 
3
3
255
47
31
95
133
67
43
96
8
37
93
24
78
148
45
71
54
26
111
116
37
14
105
77
54
29
15
88
