P3 
3
3
255
48
42
33
255
255
205
100
88
69
48
42
33
100
88
69
48
42
33
100
88
69
255
255
205
48
42
33
