P3 
4
4
255
255
0
0
255
133
0
0
0
255
0
255
29
255
0
0
255
133
0
0
0
255
0
255
29
255
0
0
255
133
0
255
0
0
255
0
0
255
0
0
255
133
0
255
0
0
255
0
0
